<?xml version="1.0" encoding="UTF-8" standalone="no"?>
<svg width="171px" height="40px" viewBox="0 0 171 40" version="1.1" xmlns="http://www.w3.org/2000/svg" xmlns:xlink="http://www.w3.org/1999/xlink" xmlns:sketch="http://www.bohemiancoding.com/sketch/ns">
    <!-- Generator: Sketch 3.3.2 (12043) - http://www.bohemiancoding.com/sketch -->
    <title>B:TAB</title>
    <desc>Created with Sketch.</desc>
    <defs></defs>
    <g id="Page-1" stroke="none" stroke-width="1" fill="none" fill-rule="evenodd" sketch:type="MSPage">
        <g id="DETAIL" sketch:type="MSArtboardGroup" transform="translate(-120.000000, -20.000000)" fill="#DC3E38">
            <g id="B:TAB" sketch:type="MSLayerGroup" transform="translate(120.000000, 20.000000)">
                <path d="M45.1792857,15.7423077 C44.2269592,14.7984615 43.7515714,13.6680769 43.7515714,12.3507692 C43.7515714,11.0342308 44.2269592,9.90384615 45.1792857,8.95923077 C46.1308367,8.01538462 47.270449,7.54307692 48.5985102,7.54307692 C49.9257959,7.54307692 51.0654082,8.01538462 52.0177347,8.95923077 C52.9692857,9.90384615 53.445449,11.0342308 53.445449,12.3507692 C53.445449,13.6680769 52.9692857,14.7984615 52.0177347,15.7423077 C51.0654082,16.6865385 49.9257959,17.1584615 48.5985102,17.1584615 C47.270449,17.1584615 46.1308367,16.6865385 45.1792857,15.7423077" id="Fill-1" sketch:type="MSShapeGroup"></path>
                <path d="M45.1792857,31.1269231 C44.2269592,30.1830769 43.7515714,29.0526923 43.7515714,27.7353846 C43.7515714,26.4188462 44.2269592,25.2884615 45.1792857,24.3438462 C46.1308367,23.4 47.270449,22.9276923 48.5985102,22.9276923 C49.9257959,22.9276923 51.0654082,23.4 52.0177347,24.3438462 C52.9692857,25.2884615 53.445449,26.4188462 53.445449,27.7353846 C53.445449,29.0526923 52.9692857,30.1830769 52.0177347,31.1269231 C51.0654082,32.0715385 49.9257959,32.5430769 48.5985102,32.5430769 C47.270449,32.5430769 46.1308367,32.0715385 45.1792857,31.1269231" id="Fill-2" sketch:type="MSShapeGroup"></path>
                <path d="M17.8634898,39.8723077 L0.360612245,39.8723077 L0.360612245,0.213846154 L15.918898,0.213846154 C18.6258163,0.213846154 20.9612653,0.535769231 22.9256327,1.17846154 C24.8892245,1.82192308 26.3479592,2.69153846 27.3010612,3.78807692 C29.1316531,5.83076923 30.0467551,8.13846154 30.0467551,10.71 C30.0467551,13.8119231 29.0548776,16.1196154 27.0726735,17.6319231 C26.3479592,18.1619231 25.8516327,18.4926923 25.5852449,18.6246154 C25.3180816,18.7576923 24.8419184,18.975 24.1552041,19.2773077 C26.6337347,19.8073077 28.6070204,20.9134615 30.075449,22.5961538 C31.5427143,24.2796154 32.277898,26.3692308 32.277898,28.8657692 C32.277898,31.6269231 31.3240204,34.0665385 29.4174286,36.1846154 C27.1672857,38.6438462 23.316102,39.8723077 17.8634898,39.8723077 L17.8634898,39.8723077 Z M7.10987755,16.6673077 L15.6897347,16.6673077 C20.5704082,16.6673077 23.0113265,15.0219231 23.0113265,11.7311538 C23.0113265,9.84038462 22.4196122,8.47846154 21.2381224,7.64615385 C20.0558571,6.81461538 18.2252653,6.39807692 15.7471224,6.39807692 L7.10987755,6.39807692 L7.10987755,16.6673077 L7.10987755,16.6673077 Z M7.10987755,33.6880769 L17.6917143,33.6880769 C20.1702449,33.6880769 22.0675306,33.3007692 23.3831837,32.525 C24.6988367,31.7503846 25.3564694,30.2842308 25.3564694,28.1280769 C25.3564694,24.6103846 22.5153878,22.8515385 16.834,22.8515385 L7.10987755,22.8515385 L7.10987755,33.6880769 L7.10987755,33.6880769 Z" id="Fill-3" sketch:type="MSShapeGroup"></path>
                <path d="M80.3246327,6.34153846 L80.3246327,39.8723077 L73.5749796,39.8723077 L73.5749796,6.34153846 L61.4483265,6.34153846 L61.4483265,0.213846154 L92.4505102,0.213846154 L92.4505102,6.34153846 L80.3246327,6.34153846" id="Fill-4" sketch:type="MSShapeGroup"></path>
                <path d="M102.288633,30.8511538 L98.2846735,39.8723077 L91.0774694,39.8723077 L108.694735,0.213846154 L115.902327,0.213846154 L133.519592,39.8723077 L126.312388,39.8723077 L122.308429,30.8511538 L102.288633,30.8511538 L102.288633,30.8511538 Z M119.562735,24.6673077 L112.298143,8.32730769 L105.034327,24.6673077 L119.562735,24.6673077 L119.562735,24.6673077 Z" id="Fill-5" sketch:type="MSShapeGroup"></path>
                <path d="M156.570469,39.8723077 L139.067204,39.8723077 L139.067204,0.213846154 L154.62549,0.213846154 C157.332796,0.213846154 159.668245,0.535769231 161.632612,1.17846154 C163.596204,1.82192308 165.054551,2.69153846 166.008041,3.78807692 C167.838633,5.83076923 168.753735,8.13846154 168.753735,10.71 C168.753735,13.8119231 167.761857,16.1196154 165.779265,17.6319231 C165.054551,18.1619231 164.558612,18.4926923 164.292224,18.6246154 C164.025061,18.7576923 163.54851,18.975 162.862571,19.2773077 C165.340327,19.8073077 167.314,20.9134615 168.782429,22.5961538 C170.249694,24.2796154 170.98449,26.3692308 170.98449,28.8657692 C170.98449,31.6269231 170.031,34.0665385 168.124408,36.1846154 C165.874265,38.6438462 162.023082,39.8723077 156.570469,39.8723077 L156.570469,39.8723077 Z M145.816857,16.6673077 L154.397102,16.6673077 C159.277388,16.6673077 161.718306,15.0219231 161.718306,11.7311538 C161.718306,9.84038462 161.126592,8.47846154 159.945102,7.64615385 C158.762449,6.81461538 156.932245,6.39807692 154.453714,6.39807692 L145.816857,6.39807692 L145.816857,16.6673077 L145.816857,16.6673077 Z M145.816857,33.6880769 L156.399082,33.6880769 C158.877224,33.6880769 160.77451,33.3007692 162.089776,32.525 C163.405816,31.7503846 164.063449,30.2842308 164.063449,28.1280769 C164.063449,24.6103846 161.222367,22.8515385 155.54098,22.8515385 L145.816857,22.8515385 L145.816857,33.6880769 L145.816857,33.6880769 Z" id="Fill-6" sketch:type="MSShapeGroup"></path>
            </g>
        </g>
    </g>
</svg>