<?xml version="1.0" encoding="utf-8"?>
<!-- Generator: Adobe Illustrator 17.0.0, SVG Export Plug-In . SVG Version: 6.00 Build 0)  -->
<!DOCTYPE svg PUBLIC "-//W3C//DTD SVG 1.0//EN" "http://www.w3.org/TR/2001/REC-SVG-20010904/DTD/svg10.dtd">
<svg version="1.0" id="Layer_1" xmlns="http://www.w3.org/2000/svg" xmlns:xlink="http://www.w3.org/1999/xlink" x="0px" y="0px"
	 width="64px" height="64px" viewBox="0 0 64 64" enable-background="new 0 0 64 64" xml:space="preserve">
<g>
	<g>
		<path fill="#EF4136" d="M49.873,26.875c-1.126-1.125-1.688-2.472-1.688-4.041c0-1.569,0.562-2.916,1.688-4.041
			c1.125-1.125,2.472-1.688,4.041-1.688c1.569,0,2.916,0.563,4.041,1.688c1.125,1.126,1.688,2.472,1.688,4.041
			c0,1.57-0.563,2.917-1.688,4.041c-1.126,1.125-2.472,1.688-4.041,1.688C52.345,28.563,50.998,28.001,49.873,26.875z"/>
		<path fill="#EF4136" d="M49.873,45.207c-1.126-1.125-1.688-2.472-1.688-4.041c0-1.569,0.562-2.916,1.688-4.041
			c1.125-1.125,2.472-1.688,4.041-1.688c1.569,0,2.916,0.563,4.041,1.688c1.125,1.126,1.688,2.472,1.688,4.041
			c0,1.57-0.563,2.917-1.688,4.041c-1.126,1.125-2.472,1.688-4.041,1.688C52.345,46.895,50.998,46.332,49.873,45.207z"/>
	</g>
	<path fill="#EF4136" d="M25.044,55.628H4.357V8.372h18.389c3.2,0,5.96,0.384,8.281,1.15c2.321,0.767,4.045,1.803,5.172,3.11
		c2.164,2.434,3.245,5.184,3.245,8.248c0,3.696-1.172,6.446-3.515,8.248c-0.857,0.632-1.443,1.026-1.758,1.183
		c-0.316,0.158-0.879,0.417-1.69,0.778c2.929,0.632,5.262,1.95,6.997,3.955c1.734,2.006,2.603,4.496,2.603,7.47
		c0,3.29-1.127,6.198-3.38,8.721C36.04,54.164,31.489,55.628,25.044,55.628z M12.334,27.977h10.141c5.769,0,8.653-1.96,8.653-5.881
		c0-2.253-0.699-3.876-2.096-4.867c-1.398-0.991-3.561-1.487-6.49-1.487H12.334V27.977z M12.334,48.259h12.507
		c2.929,0,5.172-0.462,6.727-1.386c1.555-0.923,2.332-2.67,2.332-5.239c0-4.192-3.358-6.287-10.073-6.287H12.334V48.259z"/>
</g>
</svg>
