<?xml version="1.0" encoding="UTF-8"?>
<!-- Generator: Adobe Illustrator 17.0.0, SVG Export Plug-In . SVG Version: 6.00 Build 0)  -->
<!DOCTYPE svg PUBLIC "-//W3C//DTD SVG 1.1//EN" "http://www.w3.org/Graphics/SVG/1.1/DTD/svg11.dtd">
<svg version="1.1" id="Layer_1" xmlns="http://www.w3.org/2000/svg" xmlns:xlink="http://www.w3.org/1999/xlink" x="0px" y="0px" width="500px" height="500px" viewBox="0 0 500 500" enable-background="new 0 0 500 500" xml:space="preserve">
<g>
	<path d="M250,20c31.056,0,61.176,6.079,89.522,18.068c27.386,11.583,51.985,28.169,73.113,49.297   c21.128,21.128,37.714,45.726,49.297,73.113C473.921,188.824,480,218.944,480,250s-6.079,61.176-18.068,89.522   c-11.583,27.386-28.169,51.985-49.297,73.113c-21.128,21.128-45.726,37.714-73.113,49.297C311.176,473.921,281.056,480,250,480   s-61.176-6.079-89.522-18.068c-27.386-11.583-51.985-28.169-73.113-49.297c-21.128-21.128-37.714-45.726-49.297-73.113   C26.079,311.176,20,281.056,20,250s6.079-61.176,18.068-89.522c11.583-27.386,28.169-51.985,49.297-73.113   c21.128-21.128,45.726-37.714,73.113-49.297C188.824,26.079,218.944,20,250,20 M250,5C114.69,5,5,114.69,5,250s109.69,245,245,245   s245-109.69,245-245S385.31,5,250,5L250,5z"/>
</g>
<g>
	<path d="M352.083,253.645H147.917v-43.75c0-10.025,8.203-18.228,18.228-18.228h40.105v-18.228c0-6.039,4.899-10.938,10.938-10.938   h65.623c6.039,0,10.938,4.899,10.938,10.938v18.228h40.105c10.025,0,18.228,8.203,18.228,18.228V253.645z M352.083,319.272   c0,10.025-8.203,18.228-18.228,18.228h-167.71c-10.025,0-18.228-8.203-18.228-18.228v-54.688h76.562v18.228   c0,3.988,3.305,7.293,7.293,7.293h36.457c3.988,0,7.293-3.305,7.293-7.293v-18.228h76.562V319.272z M279.167,191.667v-14.583   h-58.333v14.583H279.167z M264.583,279.167h-29.167v-14.583h29.167V279.167z"/>
</g>
</svg>